<svg width="553" height="273" viewBox="0 0 553 273" fill="none" xmlns="http://www.w3.org/2000/svg">
<g clip-path="url(#clip0)">
<path d="M176.419 184.743L175.695 185.644L237.914 235.589L238.637 234.688L176.419 184.743Z" fill="#E6E6E6"/>
<path d="M237.912 185.03L175.688 235.567L176.417 236.465L238.641 185.927L237.912 185.03Z" fill="#E6E6E6"/>
<path d="M332.752 54.4621L332.02 55.356L473.427 171.173L474.16 170.279L332.752 54.4621Z" fill="#E6E6E6"/>
<path d="M473.406 54.4408L332.035 170.88L332.77 171.772L474.141 55.3325L473.406 54.4408Z" fill="#E6E6E6"/>
<path d="M515.955 0H4.33576C3.18597 0.000415027 2.0834 0.457118 1.27037 1.26974C0.457352 2.08236 0.000415231 3.18441 0 4.33363V268.396C0.000416763 269.545 0.457352 270.647 1.27037 271.46C2.0834 272.272 3.18597 272.729 4.33576 272.73H515.955C516.634 272.727 517.303 272.566 517.908 272.259C518.513 271.952 519.038 271.507 519.441 270.962C519.673 270.66 519.858 270.325 519.99 269.968C520.191 269.468 520.293 268.934 520.291 268.396V4.33363C520.291 3.18441 519.834 2.08237 519.021 1.26975C518.208 0.457127 517.105 0.000416558 515.955 0ZM518.557 268.396C518.556 269.085 518.281 269.746 517.794 270.233C517.306 270.721 516.645 270.995 515.955 270.996H4.33576C3.64613 270.995 2.98504 270.721 2.4974 270.233C2.00976 269.746 1.73534 269.085 1.7343 268.396V4.33363C1.73534 3.64434 2.00975 2.98357 2.4974 2.49617C2.98504 2.00876 3.64613 1.73449 4.33576 1.73345H515.955C516.645 1.73449 517.306 2.00876 517.794 2.49617C518.281 2.98357 518.556 3.64434 518.557 4.33363V268.396Z" fill="#E6E6E6"/>
<path d="M520.291 22.1479H1.73438V23.3036H520.291V22.1479Z" fill="#E6E6E6"/>
<path d="M537.599 237.743C537.286 249.454 535.323 261.063 531.769 272.227C531.688 272.486 531.603 272.741 531.518 273H509.761C509.784 272.768 509.807 272.509 509.83 272.227C511.281 255.557 519.645 154.102 509.645 136.751C510.519 138.159 539.286 184.776 537.599 237.743Z" fill="#E6E6E6"/>
<path d="M535.969 272.227C535.787 272.486 535.597 272.745 535.404 273H519.082C519.206 272.78 519.349 272.521 519.515 272.227C522.212 267.362 530.193 252.819 537.601 237.743C545.563 221.541 552.867 204.725 552.252 198.639C552.441 200.011 557.95 241.857 535.969 272.227Z" fill="#E6E6E6"/>
<path d="M315.4 106.589H177.812C176.739 106.587 175.711 106.161 174.952 105.403C174.194 104.644 173.767 103.616 173.766 102.544V56.8963C173.767 55.8239 174.194 54.7958 174.952 54.0376C175.711 53.2793 176.739 52.8528 177.812 52.8516H315.4C316.473 52.8528 317.502 53.2793 318.26 54.0376C319.019 54.7958 319.446 55.8239 319.447 56.8963V102.544C319.446 103.616 319.019 104.644 318.26 105.403C317.502 106.161 316.473 106.587 315.4 106.589ZM177.812 54.0072C177.046 54.0081 176.311 54.3128 175.769 54.8544C175.228 55.396 174.923 56.1303 174.922 56.8963V102.544C174.923 103.31 175.228 104.044 175.769 104.586C176.311 105.127 177.046 105.432 177.812 105.433H315.4C316.167 105.432 316.901 105.127 317.443 104.586C317.985 104.044 318.29 103.31 318.291 102.544V56.8963C318.29 56.1303 317.985 55.396 317.443 54.8544C316.901 54.3128 316.167 54.0081 315.4 54.0072H177.812Z" fill="#E6E6E6"/>
<path d="M472.643 237.753H335.055C333.982 237.752 332.953 237.325 332.194 236.567C331.436 235.809 331.009 234.781 331.008 233.708V188.061C331.009 186.988 331.436 185.96 332.194 185.202C332.953 184.444 333.982 184.017 335.055 184.016H472.643C473.715 184.017 474.744 184.444 475.503 185.202C476.261 185.96 476.688 186.989 476.689 188.061V233.708C476.688 234.781 476.261 235.809 475.503 236.567C474.744 237.325 473.715 237.752 472.643 237.753Z" fill="#E6E6E6"/>
<path d="M236.201 171.882H177.812C176.739 171.881 175.711 171.454 174.952 170.696C174.194 169.938 173.767 168.91 173.766 167.837V122.19C173.767 121.117 174.194 120.089 174.952 119.331C175.711 118.573 176.739 118.146 177.812 118.145H236.201C237.273 118.146 238.302 118.573 239.061 119.331C239.819 120.089 240.246 121.117 240.247 122.19V167.837C240.246 168.91 239.819 169.938 239.061 170.696C238.302 171.454 237.273 171.881 236.201 171.882ZM177.812 119.301C177.046 119.302 176.311 119.606 175.769 120.148C175.228 120.689 174.923 121.424 174.922 122.19V167.837C174.923 168.603 175.228 169.338 175.769 169.879C176.311 170.421 177.046 170.725 177.812 170.726H236.201C236.967 170.725 237.702 170.421 238.243 169.879C238.785 169.338 239.09 168.603 239.091 167.837V122.19C239.09 121.424 238.785 120.689 238.243 120.148C237.702 119.606 236.967 119.302 236.201 119.301H177.812Z" fill="#E6E6E6"/>
<path d="M315.4 171.882H257.012C255.939 171.881 254.91 171.454 254.151 170.696C253.393 169.938 252.966 168.91 252.965 167.837V122.19C252.966 121.117 253.393 120.089 254.151 119.331C254.91 118.573 255.939 118.146 257.012 118.145H315.4C316.473 118.146 317.501 118.573 318.26 119.331C319.019 120.089 319.445 121.117 319.446 122.19V167.837C319.445 168.91 319.018 169.938 318.26 170.696C317.501 171.454 316.473 171.881 315.4 171.882Z" fill="#E6E6E6"/>
<path d="M236.201 237.175H177.812C176.739 237.174 175.711 236.748 174.952 235.989C174.194 235.231 173.767 234.203 173.766 233.131V187.483C173.767 186.411 174.194 185.383 174.952 184.625C175.711 183.866 176.739 183.44 177.812 183.438H236.201C237.273 183.44 238.302 183.866 239.061 184.625C239.819 185.383 240.246 186.411 240.247 187.483V233.131C240.246 234.203 239.819 235.231 239.061 235.989C238.302 236.748 237.273 237.174 236.201 237.175ZM177.812 184.594C177.046 184.595 176.311 184.9 175.769 185.441C175.228 185.983 174.923 186.717 174.922 187.483V233.131C174.923 233.897 175.228 234.631 175.769 235.173C176.311 235.714 177.046 236.019 177.812 236.02H236.201C236.967 236.019 237.702 235.714 238.243 235.173C238.785 234.631 239.09 233.897 239.091 233.131V187.483C239.09 186.717 238.785 185.983 238.243 185.441C237.702 184.9 236.967 184.595 236.201 184.594H177.812Z" fill="#3F3D56"/>
<path d="M315.4 237.175H257.012C255.939 237.174 254.91 236.748 254.151 235.989C253.393 235.231 252.966 234.203 252.965 233.131V187.483C252.966 186.411 253.393 185.383 254.151 184.625C254.91 183.866 255.939 183.44 257.012 183.438H315.4C316.473 183.44 317.501 183.866 318.26 184.625C319.018 185.383 319.445 186.411 319.446 187.483V233.131C319.445 234.203 319.018 235.231 318.26 235.989C317.501 236.748 316.473 237.174 315.4 237.175ZM257.012 184.594C256.245 184.595 255.511 184.9 254.969 185.441C254.427 185.983 254.122 186.717 254.121 187.483V233.131C254.122 233.897 254.427 234.631 254.969 235.173C255.511 235.714 256.245 236.019 257.012 236.02H315.4C316.166 236.019 316.901 235.714 317.443 235.173C317.985 234.631 318.289 233.897 318.29 233.131V187.483C318.289 186.717 317.985 185.983 317.443 185.441C316.901 184.9 316.166 184.595 315.4 184.594H257.012Z" fill="#E6E6E6"/>
<path d="M472.064 172.46H334.476C333.404 172.458 332.375 172.032 331.616 171.274C330.858 170.515 330.431 169.487 330.43 168.415V56.8963C330.431 55.8239 330.858 54.7958 331.616 54.0376C332.375 53.2793 333.404 52.8528 334.476 52.8516H472.064C473.137 52.8528 474.166 53.2794 474.924 54.0376C475.683 54.7959 476.11 55.8239 476.111 56.8963V168.415C476.11 169.487 475.683 170.515 474.924 171.274C474.166 172.032 473.137 172.458 472.064 172.46ZM334.476 54.0072C333.71 54.0081 332.975 54.3128 332.433 54.8544C331.892 55.396 331.587 56.1303 331.586 56.8963V168.415C331.587 169.181 331.892 169.915 332.433 170.457C332.975 170.999 333.71 171.303 334.476 171.304H472.064C472.831 171.303 473.565 170.999 474.107 170.457C474.649 169.915 474.954 169.181 474.955 168.415V56.8963C474.954 56.1303 474.649 55.396 474.107 54.8544C473.565 54.3128 472.831 54.0081 472.064 54.0072H334.476Z" fill="#3F3D56"/>
<path d="M494.611 192.683H357.023C355.95 192.682 354.922 192.255 354.163 191.497C353.405 190.739 352.978 189.711 352.977 188.639V77.1199C352.978 76.0476 353.405 75.0195 354.163 74.2612C354.922 73.503 355.95 73.0764 357.023 73.0752H494.611C495.684 73.0764 496.713 73.503 497.471 74.2612C498.23 75.0195 498.657 76.0476 498.658 77.1199V188.639C498.657 189.711 498.23 190.739 497.471 191.497C496.713 192.255 495.684 192.682 494.611 192.683Z" fill="#560027"/>
<path d="M441.517 165.237H371.274C371.186 165.238 371.098 165.231 371.012 165.216L404.233 107.7C404.436 107.342 404.73 107.044 405.086 106.837C405.442 106.629 405.846 106.52 406.258 106.52C406.669 106.52 407.074 106.629 407.43 106.837C407.785 107.044 408.079 107.342 408.282 107.7L430.578 146.298L431.646 148.145L441.517 165.237Z" fill="white"/>
<path opacity="0.2" d="M441.514 165.237H417.531L429.304 148.145L430.152 146.914L430.576 146.298L431.644 148.145L441.514 165.237Z" fill="black"/>
<path d="M480.625 165.237H419.871L431.644 148.145L432.491 146.913L447.832 124.639C448.104 124.299 448.443 124.019 448.83 123.819C449.216 123.618 449.64 123.501 450.075 123.475C450.509 123.449 450.945 123.515 451.352 123.668C451.76 123.821 452.13 124.058 452.44 124.364C452.52 124.451 452.593 124.543 452.661 124.639L480.625 165.237Z" fill="white"/>
<path d="M434.836 121.323C440.582 121.323 445.241 116.666 445.241 110.922C445.241 105.178 440.582 100.521 434.836 100.521C429.089 100.521 424.43 105.178 424.43 110.922C424.43 116.666 429.089 121.323 434.836 121.323Z" fill="white"/>
<path d="M373.21 81.1646H360.492V93.8765H373.21V81.1646Z" fill="#3F3D56"/>
<path d="M252.388 249.887H194C192.927 249.886 191.898 249.46 191.14 248.701C190.381 247.943 189.954 246.915 189.953 245.843V200.195C189.954 199.123 190.381 198.095 191.14 197.336C191.898 196.578 192.927 196.152 194 196.15H252.388C253.461 196.152 254.489 196.578 255.248 197.336C256.007 198.095 256.434 199.123 256.435 200.195V245.843C256.434 246.915 256.007 247.943 255.248 248.701C254.489 249.46 253.461 249.886 252.388 249.887Z" fill="#560027"/>
<path d="M229.746 236.522H200.434C200.397 236.522 200.36 236.52 200.324 236.513L214.188 212.511C214.272 212.362 214.395 212.238 214.544 212.151C214.692 212.065 214.861 212.019 215.033 212.019C215.204 212.019 215.373 212.065 215.522 212.151C215.67 212.238 215.793 212.362 215.877 212.511L225.182 228.619L225.627 229.389L229.746 236.522Z" fill="white"/>
<path opacity="0.2" d="M229.742 236.522H219.734L224.647 229.389L225.001 228.876L225.177 228.619L225.623 229.389L229.742 236.522Z" fill="black"/>
<path d="M246.064 236.522H220.711L225.624 229.389L225.977 228.875L232.379 219.58C232.493 219.438 232.634 219.322 232.796 219.238C232.957 219.154 233.134 219.105 233.315 219.095C233.497 219.084 233.678 219.111 233.848 219.175C234.018 219.239 234.173 219.338 234.302 219.465C234.335 219.502 234.366 219.54 234.394 219.58L246.064 236.522Z" fill="white"/>
<path d="M226.956 218.196C229.354 218.196 231.298 216.253 231.298 213.856C231.298 211.459 229.354 209.516 226.956 209.516C224.557 209.516 222.613 211.459 222.613 213.856C222.613 216.253 224.557 218.196 226.956 218.196Z" fill="white"/>
<path d="M204.984 200.773H195.734V210.018H204.984V200.773Z" fill="#3F3D56"/>
<path d="M57.9234 82.543C57.0217 82.558 56.162 82.9266 55.5297 83.5693C54.8973 84.212 54.543 85.0773 54.543 85.9786C54.543 86.88 54.8973 87.7453 55.5297 88.388C56.162 89.0307 57.0217 89.3993 57.9234 89.4144H119.83C120.74 89.4265 121.617 89.0775 122.27 88.4441C122.923 87.8106 123.298 86.9443 123.313 86.0349C123.328 85.1255 122.982 84.2473 122.35 83.5928C121.718 82.9382 120.852 82.5607 119.943 82.543C119.905 82.5423 119.867 82.5423 119.83 82.543H57.9234Z" fill="#E6E6E6"/>
<path d="M57.9234 100.455C57.0217 100.47 56.162 100.839 55.5297 101.481C54.8973 102.124 54.543 102.989 54.543 103.891C54.543 104.792 54.8973 105.657 55.5297 106.3C56.162 106.943 57.0217 107.311 57.9234 107.326H119.83C120.74 107.339 121.617 106.99 122.27 106.356C122.923 105.723 123.298 104.856 123.313 103.947C123.328 103.038 122.982 102.159 122.35 101.505C121.718 100.85 120.852 100.473 119.943 100.455C119.905 100.454 119.867 100.454 119.83 100.455H57.9234Z" fill="#E6E6E6"/>
<path d="M57.9234 118.368C57.0217 118.383 56.162 118.751 55.5297 119.394C54.8973 120.037 54.543 120.902 54.543 121.803C54.543 122.705 54.8973 123.57 55.5297 124.213C56.162 124.855 57.0217 125.224 57.9234 125.239H119.83C120.74 125.251 121.617 124.902 122.27 124.269C122.923 123.635 123.298 122.769 123.313 121.86C123.328 120.95 122.982 120.072 122.35 119.417C121.718 118.763 120.852 118.385 119.943 118.368C119.905 118.367 119.867 118.367 119.83 118.368H57.9234Z" fill="#E6E6E6"/>
<path d="M57.9234 136.28C57.0217 136.295 56.162 136.663 55.5297 137.306C54.8973 137.949 54.543 138.814 54.543 139.715C54.543 140.617 54.8973 141.482 55.5297 142.125C56.162 142.768 57.0217 143.136 57.9234 143.151H119.83C120.74 143.163 121.617 142.814 122.27 142.181C122.923 141.547 123.298 140.681 123.313 139.772C123.328 138.862 122.982 137.984 122.35 137.33C121.718 136.675 120.852 136.298 119.943 136.28C119.905 136.279 119.867 136.279 119.83 136.28H57.9234Z" fill="#E6E6E6"/>
<path d="M57.9234 154.192C57.0217 154.207 56.162 154.576 55.5297 155.219C54.8973 155.861 54.543 156.727 54.543 157.628C54.543 158.529 54.8973 159.395 55.5297 160.037C56.162 160.68 57.0217 161.049 57.9234 161.064H119.83C120.74 161.076 121.617 160.727 122.27 160.093C122.923 159.46 123.298 158.594 123.313 157.684C123.328 156.775 122.982 155.897 122.35 155.242C121.718 154.588 120.852 154.21 119.943 154.192C119.905 154.192 119.867 154.192 119.83 154.192H57.9234Z" fill="#E6E6E6"/>
<path d="M57.9234 172.104C57.0217 172.12 56.162 172.488 55.5297 173.131C54.8973 173.774 54.543 174.639 54.543 175.54C54.543 176.442 54.8973 177.307 55.5297 177.95C56.162 178.592 57.0217 178.961 57.9234 178.976H119.83C120.74 178.988 121.617 178.639 122.27 178.006C122.923 177.372 123.298 176.506 123.313 175.596C123.328 174.687 122.982 173.809 122.35 173.154C121.718 172.5 120.852 172.122 119.943 172.104C119.905 172.104 119.867 172.104 119.83 172.104H57.9234Z" fill="#E6E6E6"/>
<path d="M35.8005 92.3531C34.5428 92.3531 33.3133 91.9803 32.2676 91.2819C31.2218 90.5835 30.4068 89.5908 29.9255 88.4294C29.4442 87.268 29.3182 85.9901 29.5636 84.7571C29.809 83.5242 30.4146 82.3916 31.304 81.5027C32.1933 80.6138 33.3264 80.0085 34.5599 79.7632C35.7935 79.518 37.0721 79.6439 38.234 80.1249C39.396 80.606 40.3892 81.4207 41.0879 82.4659C41.7867 83.5111 42.1596 84.74 42.1596 85.9971C42.1577 87.6822 41.4871 89.2978 40.295 90.4894C39.1028 91.6809 37.4865 92.3512 35.8005 92.3531ZM35.8005 80.7968C34.7715 80.7968 33.7656 81.1017 32.9099 81.6732C32.0543 82.2446 31.3875 83.0568 30.9937 84.007C30.5999 84.9573 30.4968 86.0029 30.6976 87.0116C30.8983 88.0204 31.3939 88.947 32.1215 89.6743C32.8492 90.4016 33.7762 90.8969 34.7855 91.0975C35.7947 91.2982 36.8409 91.1952 37.7916 90.8016C38.7423 90.408 39.5549 89.7415 40.1266 88.8863C40.6983 88.0311 41.0034 87.0256 41.0034 85.9971C41.0019 84.6184 40.4532 83.2965 39.4778 82.3216C38.5024 81.3467 37.1799 80.7983 35.8005 80.7968Z" fill="#E6E6E6"/>
<path d="M35.8005 110.265C34.5428 110.265 33.3133 109.892 32.2676 109.194C31.2218 108.496 30.4068 107.503 29.9255 106.342C29.4442 105.18 29.3182 103.902 29.5636 102.669C29.809 101.436 30.4146 100.304 31.304 99.4149C32.1933 98.526 33.3264 97.9206 34.5599 97.6754C35.7935 97.4301 37.0721 97.556 38.234 98.0371C39.396 98.5181 40.3892 99.3328 41.0879 100.378C41.7867 101.423 42.1596 102.652 42.1596 103.909C42.1577 105.594 41.4871 107.21 40.295 108.401C39.1028 109.593 37.4865 110.263 35.8005 110.265ZM35.8005 98.7089C34.7715 98.7089 33.7656 99.0139 32.9099 99.5853C32.0543 100.157 31.3875 100.969 30.9937 101.919C30.5999 102.869 30.4968 103.915 30.6976 104.924C30.8983 105.933 31.3939 106.859 32.1215 107.586C32.8492 108.314 33.7762 108.809 34.7855 109.01C35.7947 109.21 36.8409 109.107 37.7916 108.714C38.7423 108.32 39.5549 107.654 40.1266 106.798C40.6983 105.943 41.0034 104.938 41.0034 103.909C41.0019 102.53 40.4532 101.209 39.4778 100.234C38.5024 99.2588 37.1799 98.7104 35.8005 98.7089Z" fill="#E6E6E6"/>
<path d="M35.8005 128.16C34.5428 128.16 33.3133 127.787 32.2676 127.089C31.2218 126.39 30.4068 125.397 29.9255 124.236C29.4442 123.075 29.3182 121.797 29.5636 120.564C29.809 119.331 30.4146 118.198 31.304 117.309C32.1933 116.42 33.3264 115.815 34.5599 115.57C35.7935 115.325 37.0721 115.451 38.234 115.932C39.396 116.413 40.3892 117.227 41.0879 118.273C41.7867 119.318 42.1596 120.547 42.1596 121.804C42.1577 123.489 41.4871 125.104 40.295 126.296C39.1028 127.488 37.4865 128.158 35.8005 128.16ZM35.8005 116.603C34.7715 116.603 33.7656 116.908 32.9099 117.48C32.0543 118.051 31.3875 118.863 30.9937 119.814C30.5999 120.764 30.4968 121.81 30.6976 122.818C30.8983 123.827 31.3939 124.754 32.1215 125.481C32.8492 126.208 33.7762 126.704 34.7855 126.904C35.7947 127.105 36.8409 127.002 37.7916 126.608C38.7423 126.215 39.5549 125.548 40.1266 124.693C40.6983 123.838 41.0034 122.832 41.0034 121.804C41.0019 120.425 40.4532 119.103 39.4778 118.128C38.5024 117.153 37.1799 116.605 35.8005 116.603Z" fill="#E6E6E6"/>
<path d="M35.8005 146.072C34.5428 146.072 33.3133 145.699 32.2676 145.001C31.2218 144.302 30.4068 143.31 29.9255 142.148C29.4442 140.987 29.3182 139.709 29.5636 138.476C29.809 137.243 30.4146 136.11 31.304 135.221C32.1933 134.333 33.3264 133.727 34.5599 133.482C35.7935 133.237 37.0721 133.363 38.234 133.844C39.396 134.325 40.3892 135.139 41.0879 136.185C41.7867 137.23 42.1596 138.459 42.1596 139.716C42.1577 141.401 41.4871 143.017 40.295 144.208C39.1028 145.4 37.4865 146.07 35.8005 146.072ZM35.8005 134.516C34.7715 134.516 33.7656 134.82 32.9099 135.392C32.0543 135.963 31.3875 136.776 30.9937 137.726C30.5999 138.676 30.4968 139.722 30.6976 140.73C30.8983 141.739 31.3939 142.666 32.1215 143.393C32.8492 144.12 33.7762 144.616 34.7855 144.816C35.7947 145.017 36.8409 144.914 37.7916 144.52C38.7423 144.127 39.5549 143.46 40.1266 142.605C40.6983 141.75 41.0034 140.744 41.0034 139.716C41.0019 138.337 40.4532 137.015 39.4778 136.04C38.5024 135.065 37.1799 134.517 35.8005 134.516Z" fill="#E6E6E6"/>
<path d="M35.8005 163.984C34.5428 163.984 33.3133 163.611 32.2676 162.913C31.2218 162.214 30.4068 161.222 29.9255 160.06C29.4442 158.899 29.3182 157.621 29.5636 156.388C29.809 155.155 30.4146 154.023 31.304 153.134C32.1933 152.245 33.3264 151.639 34.5599 151.394C35.7935 151.149 37.0721 151.275 38.234 151.756C39.396 152.237 40.3892 153.052 41.0879 154.097C41.7867 155.142 42.1596 156.371 42.1596 157.628C42.1577 159.313 41.4871 160.929 40.295 162.12C39.1028 163.312 37.4865 163.982 35.8005 163.984ZM35.8005 152.428C34.7715 152.428 33.7656 152.733 32.9099 153.304C32.0543 153.875 31.3875 154.688 30.9937 155.638C30.5999 156.588 30.4968 157.634 30.6976 158.643C30.8983 159.651 31.3939 160.578 32.1215 161.305C32.8492 162.032 33.7762 162.528 34.7855 162.728C35.7947 162.929 36.8409 162.826 37.7916 162.432C38.7423 162.039 39.5549 161.372 40.1266 160.517C40.6983 159.662 41.0034 158.657 41.0034 157.628C41.0019 156.249 40.4532 154.927 39.4778 153.952C38.5024 152.978 37.1799 152.429 35.8005 152.428Z" fill="#E6E6E6"/>
<path d="M35.8005 181.897C34.5428 181.897 33.3133 181.524 32.2676 180.825C31.2218 180.127 30.4068 179.134 29.9255 177.973C29.4442 176.811 29.3182 175.534 29.5636 174.301C29.809 173.068 30.4146 171.935 31.304 171.046C32.1933 170.157 33.3264 169.552 34.5599 169.307C35.7935 169.061 37.0721 169.187 38.234 169.668C39.396 170.149 40.3892 170.964 41.0879 172.009C41.7867 173.055 42.1596 174.283 42.1596 175.541C42.1577 177.226 41.4871 178.841 40.295 180.033C39.1028 181.224 37.4865 181.895 35.8005 181.897ZM35.8005 170.34C34.7715 170.34 33.7656 170.645 32.9099 171.217C32.0543 171.788 31.3875 172.6 30.9937 173.55C30.5999 174.501 30.4968 175.546 30.6976 176.555C30.8983 177.564 31.3939 178.49 32.1215 179.218C32.8492 179.945 33.7762 180.44 34.7855 180.641C35.7947 180.842 36.8409 180.739 37.7916 180.345C38.7423 179.951 39.5549 179.285 40.1266 178.43C40.6983 177.575 41.0034 176.569 41.0034 175.541C41.0019 174.162 40.4532 172.84 39.4778 171.865C38.5024 170.89 37.1799 170.342 35.8005 170.34Z" fill="#E6E6E6"/>
<path d="M35.8007 88.8861C37.397 88.8861 38.6912 87.5926 38.6912 85.997C38.6912 84.4014 37.397 83.1079 35.8007 83.1079C34.2043 83.1079 32.9102 84.4014 32.9102 85.997C32.9102 87.5926 34.2043 88.8861 35.8007 88.8861Z" fill="#560027"/>
<path d="M35.8007 124.711C37.397 124.711 38.6912 123.417 38.6912 121.822C38.6912 120.226 37.397 118.933 35.8007 118.933C34.2043 118.933 32.9102 120.226 32.9102 121.822C32.9102 123.417 34.2043 124.711 35.8007 124.711Z" fill="#560027"/>
<path d="M35.8007 142.623C37.397 142.623 38.6912 141.329 38.6912 139.734C38.6912 138.138 37.397 136.845 35.8007 136.845C34.2043 136.845 32.9102 138.138 32.9102 139.734C32.9102 141.329 34.2043 142.623 35.8007 142.623Z" fill="#560027"/>
<path d="M293.426 154.031L294.362 161.054C294.457 161.765 294.706 162.446 295.091 163.051C295.477 163.656 295.989 164.169 296.594 164.555C297.198 164.942 297.879 165.191 298.59 165.288C299.301 165.384 300.024 165.324 300.709 165.112C301.446 164.883 302.12 164.485 302.675 163.95C303.231 163.414 303.653 162.755 303.907 162.027C304.161 161.298 304.241 160.52 304.14 159.755C304.038 158.99 303.759 158.26 303.323 157.623L299.12 151.47L290.863 129.559L299.404 118.462L289.44 114.193L281.184 128.706L293.426 154.031Z" fill="#FFB8B8"/>
<path d="M287.16 114.762L301.395 120.169L304.87 110.52C305.332 109.239 305.325 107.836 304.852 106.559C304.379 105.282 303.469 104.213 302.284 103.542C301.084 102.863 299.682 102.635 298.329 102.898C296.977 103.162 295.763 103.901 294.907 104.981L287.16 114.762Z" fill="#560027"/>
<path d="M277.199 249.642L295.846 250.097L306.808 178.503C317.206 197.435 325.454 222.665 332.715 250.781L348.943 247.081C344.421 217.16 336.135 190.191 323.605 166.552L324.174 150.332L298.267 146.348C297.533 146.691 296.837 147.108 296.189 147.594C281.55 158.49 279.655 207.555 277.199 249.642Z" fill="#2F2E41"/>
<path d="M336.982 272.976L343.215 272.197L342.392 264.724C344.92 269.808 348.149 272.028 352.03 271.586C352.944 271.465 353.805 271.086 354.512 270.495C355.218 269.903 355.742 269.122 356.022 268.244C356.077 268.079 356.123 267.911 356.161 267.74C356.29 267.027 356.161 266.291 355.797 265.663C355.433 265.036 354.858 264.558 354.175 264.316C349.519 262.461 348.248 254.023 347.231 245.089L339.545 246.512L339.829 253.057C335.446 259.402 335.319 265.751 336.982 272.976Z" fill="#2F2E41"/>
<path d="M281.182 272.976L287.414 272.197L286.591 264.724C289.119 269.808 292.349 272.028 296.229 271.586C297.143 271.465 298.004 271.086 298.711 270.495C299.417 269.903 299.941 269.122 300.221 268.244C300.276 268.079 300.322 267.911 300.36 267.74C300.489 267.027 300.36 266.291 299.996 265.663C299.633 265.036 299.058 264.558 298.374 264.316C293.718 262.461 292.447 254.023 291.431 245.089L283.744 246.512L284.029 253.057C279.645 259.402 279.518 265.751 281.182 272.976Z" fill="#2F2E41"/>
<path d="M315.524 100.904C321.101 100.904 325.622 96.3856 325.622 90.8113C325.622 85.2371 321.101 80.7183 315.524 80.7183C309.947 80.7183 305.426 85.2371 305.426 90.8113C305.426 96.3856 309.947 100.904 315.524 100.904Z" fill="#FFB8B8"/>
<path d="M295.703 110.21L309.084 107.933L315.917 96.5508L306.237 90.2905C304.343 96.8378 300.607 103.49 295.703 110.21Z" fill="#FFB8B8"/>
<path d="M296.913 147.334L323.886 153.747C325.964 136.871 325.261 122.108 320.325 110.561C319.564 108.805 318.413 107.245 316.958 106.001C315.503 104.756 313.783 103.86 311.929 103.38L300.541 102.811C297.993 104.043 295.913 106.067 294.611 108.579C293.308 111.091 292.854 113.956 293.317 116.748C297.639 128.135 300.613 139.008 296.913 147.334Z" fill="#560027"/>
<path d="M346.17 142.547L352.464 145.806C353.101 146.136 353.802 146.323 354.519 146.354C355.236 146.385 355.95 146.259 356.613 145.986C357.276 145.712 357.872 145.298 358.358 144.771C358.844 144.243 359.21 143.617 359.429 142.934C359.664 142.199 359.724 141.42 359.603 140.658C359.482 139.895 359.184 139.172 358.733 138.547C358.282 137.921 357.689 137.409 357.004 137.054C356.319 136.699 355.56 136.509 354.788 136.5L347.335 136.416L324.639 130.617L320.438 117.261L311.227 122.975L318.391 138.055L346.17 142.547Z" fill="#FFB8B8"/>
<path d="M310.386 125.166L322.978 116.607L317.061 108.229C316.275 107.117 315.121 106.318 313.803 105.974C312.485 105.629 311.087 105.762 309.857 106.348C308.613 106.941 307.622 107.958 307.063 109.217C306.504 110.477 306.414 111.894 306.809 113.214L310.386 125.166Z" fill="#560027"/>
<path d="M313.212 90.7175C317.085 90.1672 320.383 89.1708 324.256 88.6206C325.211 88.4849 326.307 88.2537 326.751 87.3978C327.16 86.6091 326.814 85.6471 326.387 84.8682C325.281 82.8536 323.658 81.17 321.684 79.991C319.711 78.812 317.459 78.1802 315.16 78.1606C312.861 78.1411 310.598 78.7345 308.605 79.8799C306.612 81.0252 304.961 82.6809 303.821 84.6765C302.799 86.4647 302.199 88.5058 300.903 90.1066C300.036 91.0731 299.074 91.9495 298.031 92.7225C290.203 99.2172 285.183 108.479 284.015 118.58C283.751 120.422 283.8 122.295 284.159 124.121C284.529 125.96 285.555 127.602 287.045 128.742C289.289 130.33 292.402 130.197 294.928 129.112C299.765 127.034 302.785 121.933 303.66 116.744C304.536 111.554 303.588 106.24 302.416 101.109C301.989 99.2369 301.532 97.2659 302.081 95.4249C302.842 92.8677 306.375 96.9389 308.657 95.555C309.609 94.9776 309.574 88.7012 310.684 88.7937C311.793 88.8861 312.863 90.0357 312.432 91.0619L313.212 90.7175Z" fill="#2F2E41"/>
<path d="M302.897 95.3687C303.184 95.1874 303.388 94.8995 303.463 94.5683C303.538 94.2371 303.478 93.8897 303.297 93.6025L301.665 91.0185C301.484 90.7313 301.196 90.5279 300.865 90.4529C300.533 90.378 300.186 90.4378 299.898 90.619C299.611 90.8002 299.407 91.0882 299.332 91.4194C299.257 91.7507 299.317 92.0981 299.499 92.3853L301.13 94.9693C301.312 95.2562 301.6 95.4594 301.931 95.5343C302.262 95.6092 302.61 95.5496 302.897 95.3687H302.897Z" fill="#560027"/>
<path d="M16.0662 17.4699C18.7801 17.4699 20.9801 15.2709 20.9801 12.5584C20.9801 9.8459 18.7801 7.64697 16.0662 7.64697C13.3524 7.64697 11.1523 9.8459 11.1523 12.5584C11.1523 15.2709 13.3524 17.4699 16.0662 17.4699Z" fill="#E6E6E6"/>
<path d="M30.3162 17.4699C33.0301 17.4699 35.2301 15.2709 35.2301 12.5584C35.2301 9.8459 33.0301 7.64697 30.3162 7.64697C27.6024 7.64697 25.4023 9.8459 25.4023 12.5584C25.4023 15.2709 27.6024 17.4699 30.3162 17.4699Z" fill="#E6E6E6"/>
<path d="M44.5662 17.4699C47.2801 17.4699 49.4801 15.2709 49.4801 12.5584C49.4801 9.8459 47.2801 7.64697 44.5662 7.64697C41.8524 7.64697 39.6523 9.8459 39.6523 12.5584C39.6523 15.2709 41.8524 17.4699 44.5662 17.4699Z" fill="#E6E6E6"/>
</g>
<defs>
<clipPath id="clip0">
<rect width="553" height="273" fill="white"/>
</clipPath>
</defs>
</svg>
